<?xml version="1.0" encoding="UTF-8"?><svg viewBox="0 0 95 107" xmlns="http://www.w3.org/2000/svg" xmlns:xlink="http://www.w3.org/1999/xlink"><style>:root>svg{display:none}:root>svg:target{display:block}</style><svg viewBox="0 0 16 10" id="arrow-down" xmlns="http://www.w3.org/2000/svg"><path d="M1 2l6.988 6L15 2" stroke="#3D3935" stroke-width="3" fill="none" fill-rule="evenodd"/></svg><svg viewBox="0 0 10 17" id="arrow-left" xmlns="http://www.w3.org/2000/svg"><path d="M.74 7.72L8.46 0 10 1.578 3.097 8.5 10 15.422 8.46 17 .74 9.28l-.761-.78z" fill="#FEFEFE" fill-rule="nonzero"/></svg><svg viewBox="0 0 10 17" id="arrow-right" xmlns="http://www.w3.org/2000/svg"><path d="M9.26 9.28L1.54 17 0 15.422 6.903 8.5 0 1.578 1.54 0l7.72 7.72.761.78z" fill="#FEFEFE" fill-rule="nonzero"/></svg><svg viewBox="0 0 8 6" id="arrow_dropdown" xmlns="http://www.w3.org/2000/svg"><path d="M4 6L0 0h8z" fill="#A45353" fill-rule="nonzero"/></svg><svg viewBox="0 0 16 10" id="back-to-top" xmlns="http://www.w3.org/2000/svg"><path fill="none" stroke="#FFF" stroke-width="2" d="M1 9l6.988-7L15 9"/></svg><svg viewBox="0 0 42 42" id="close" xmlns="http://www.w3.org/2000/svg"><g fill="none" stroke="#3D3935" transform="translate(1 1)"><circle cx="20" cy="20" r="20"/><path d="M14 14l12 12m0-12L14 26" stroke-linecap="square" stroke-width="3"/></g></svg><svg viewBox="0 0 40 40" id="close-cta" xmlns="http://www.w3.org/2000/svg"><g fill="none"><circle cx="20" cy="20" r="20" fill="#3D3935"/><path d="M14 14l12 12m0-12L14 26" stroke="#FEFEFE" stroke-linecap="square" stroke-width="3"/></g></svg><svg viewBox="0 0 40 40" id="cross" xmlns="http://www.w3.org/2000/svg"><g fill="none"><circle cx="20" cy="20" r="20" fill="#3D3935"/><path d="M14 14l12 12m0-12L14 26" stroke="#FEFEFE" stroke-linecap="square" stroke-width="3"/></g></svg><svg viewBox="0 0 31 32" id="cross-search-overlay" xmlns="http://www.w3.org/2000/svg"><path d="M15.825 17.781L2.87 30.735l-.8.8L.47 29.934l.8-.8L14.224 16.18 1.27 3.226l-.8-.8L2.07.825l.801.8L15.825 14.58 27.954 2.45l.8-.8 1.601 1.6-.8.801-12.13 12.129 12.13 12.129.8.8-1.601 1.601-.8-.8-12.13-12.129z" fill="none" fill-rule="evenodd"/></svg><svg viewBox="0 0 40 40" id="desk-button-radial-selected" xmlns="http://www.w3.org/2000/svg"><path fill="#413F47" d="M20 0c11.067 0 20 8.933 20 20s-8.933 20-20 20S0 31.067 0 20 8.933 0 20 0zm9.471 14.439c-.41-.445-1.095-.411-1.506 0l-9.424 9.548-4.962-4.997a1.074 1.074 0 0 0-1.506 0 1.074 1.074 0 0 0 0 1.506l6.445 6.698L29.47 15.979c.41-.445.41-1.095 0-1.54z"/></svg><svg viewBox="0 0 26 13" id="email" xmlns="http://www.w3.org/2000/svg"><g fill="none" transform="translate(3 1)"><rect width="18" height="12" x="1" fill="#FFF" rx="2"/><path stroke="#3D3935" stroke-width="2" d="M10 8l10-8H0z"/></g></svg><svg viewBox="0 0 8 16" id="facebook" xmlns="http://www.w3.org/2000/svg"><path fill="#FFF" fill-rule="evenodd" d="M7.389 7.98H5.285v7.494H2.168V7.98H.686V5.333h1.482V3.618c0-1.226.583-3.144 3.146-3.144l2.308.01v2.57H5.947c-.274 0-.662.136-.662.722v1.557h2.377L7.389 7.98"/></svg><svg viewBox="0 0 18 13" id="flag-us" xmlns="http://www.w3.org/2000/svg"><defs><rect id="ama" width="18" height="12.857" rx="2"/><linearGradient id="ame" x1="50%" x2="50%" y1="0%" y2="100%"><stop offset="0%" stop-color="#FFF"/><stop offset="100%" stop-color="#F0F0F0"/></linearGradient><path id="amd" d="M1.286 1.714a.429.429 0 1 1 0-.857.429.429 0 0 1 0 .857zm1.714 0a.429.429 0 1 1 0-.857.429.429 0 0 1 0 .857zm1.714 0a.429.429 0 1 1 0-.857.429.429 0 0 1 0 .857zm1.715 0a.429.429 0 1 1 0-.857.429.429 0 0 1 0 .857zm-4.286.857a.429.429 0 1 1 0-.857.429.429 0 0 1 0 .857zm1.714 0a.429.429 0 1 1 0-.857.429.429 0 0 1 0 .857zm1.714 0a.429.429 0 1 1 0-.857.429.429 0 0 1 0 .857zm.858.858a.429.429 0 1 1 0-.858.429.429 0 0 1 0 .858zm-1.715 0a.429.429 0 1 1 0-.858.429.429 0 0 1 0 .858zM3 3.429a.429.429 0 1 1 0-.858.429.429 0 0 1 0 .858zm-1.714 0a.429.429 0 1 1 0-.858.429.429 0 0 1 0 .858zm.857.857a.429.429 0 1 1 0-.857.429.429 0 0 1 0 .857zm1.714 0a.429.429 0 1 1 0-.857.429.429 0 0 1 0 .857zm1.714 0a.429.429 0 1 1 0-.857.429.429 0 0 1 0 .857zm.858.857a.429.429 0 1 1 0-.857.429.429 0 0 1 0 .857zm-1.715 0a.429.429 0 1 1 0-.857.429.429 0 0 1 0 .857zM3 5.143a.429.429 0 1 1 0-.857.429.429 0 0 1 0 .857zm-1.714 0a.429.429 0 1 1 0-.857.429.429 0 0 1 0 .857z"/><filter id="amc" width="116.7%" height="146.7%" x="-8.3%" y="-11.7%" filterUnits="objectBoundingBox"><feOffset dy="1" in="SourceAlpha" result="shadowOffsetOuter1"/><feColorMatrix in="shadowOffsetOuter1" values="0 0 0 0 0 0 0 0 0 0 0 0 0 0 0 0 0 0 0.06 0"/></filter></defs><g fill="none" fill-rule="evenodd"><mask id="amb" fill="#fff"><use xlink:href="#ama"/></mask><use fill="#FFF" xlink:href="#ama"/><path fill="#D02F44" d="M0 0h18v.857H0V0zm0 1.714h18v.857H0v-.857zM0 3.43h18v.857H0V3.43zm0 1.714h18V6H0v-.857zm0 1.714h18v.857H0v-.857zm0 1.714h18v.858H0v-.86zm0 1.715h18v.857H0v-.857zM0 12h18v.857H0V12z" mask="url(#amb)"/><path fill="#46467F" d="M0 0h7.714v6H0z" mask="url(#amb)"/><g mask="url(#amb)"><use fill="#000" filter="url(#amc)" xlink:href="#amd"/><use fill="url(#ame)" xlink:href="#amd"/></g></g></svg><svg viewBox="0 0 12 7" id="global-nav-marker" xmlns="http://www.w3.org/2000/svg"><path fill="none" stroke="#3D3935" stroke-width="1.5" d="M1 1l4.991 5L11 1"/></svg><svg viewBox="0 0 11 3" id="icn-minus" xmlns="http://www.w3.org/2000/svg"><path fill="none" stroke="#3D3935" stroke-linecap="square" stroke-width="3" d="M1.5 1.5h8"/></svg><svg viewBox="0 0 16 16" id="icn-plus" xmlns="http://www.w3.org/2000/svg"><path d="M8 3v10M3 8h10" fill="none" fill-rule="evenodd" stroke="#3D3935" stroke-linecap="square" stroke-width="3"/></svg><svg viewBox="0 0 19 25" id="icon-gps" xmlns="http://www.w3.org/2000/svg"><g fill-rule="nonzero" fill="#3D3935"><path d="M17.4 9.324c0 .387-.027.774-.08 1.159l.03-.21a8.435 8.435 0 0 1-.526 1.979c-.35.806-.821 1.562-1.293 2.302a66.227 66.227 0 0 1-1.99 2.933 144.6 144.6 0 0 1-2.133 2.923 190.02 190.02 0 0 1-1.757 2.316c-.278.358-.555.717-.835 1.073a3.58 3.58 0 0 0 .112-.142h1.13c.278.35.003.006-.058-.076l-.496-.64c-.563-.728-1.12-1.46-1.672-2.196a160.722 160.722 0 0 1-2.114-2.88 80.48 80.48 0 0 1-2.038-2.968c-.506-.78-1.008-1.575-1.408-2.415a6.224 6.224 0 0 1-.106-.233l.08.189a8.624 8.624 0 0 1-.606-2.167l.03.21a8.671 8.671 0 0 1 0-2.321l-.03.209a8.43 8.43 0 0 1 .608-2.17l-.08.19a8.728 8.728 0 0 1 .958-1.665c.032-.042.06-.084.093-.126.013-.018.03-.036.043-.055.072-.091-.062.082-.062.079.01-.037.072-.092.099-.12a9.157 9.157 0 0 1 1.013-1.036c.078-.069.158-.134.24-.2l.123-.096c.043-.034.117-.087-.08.06l.083-.063c.168-.123.34-.24.517-.353a9.053 9.053 0 0 1 1.307-.678l-.192.079a8.963 8.963 0 0 1 2.21-.597c-.072.01-.141.018-.213.029a9.196 9.196 0 0 1 2.368 0c-.072-.01-.142-.018-.214-.029a8.85 8.85 0 0 1 2.211.597l-.192-.079c.4.168.787.364 1.157.586a7.9 7.9 0 0 1 .54.354l.127.091.056.042c.093.07-.083-.06-.08-.06.037.01.093.07.123.097a9.168 9.168 0 0 1 1.056.994c.07.076.136.154.202.235l.099.12c.035.043.088.116-.061-.078.021.026.042.055.064.081a8.769 8.769 0 0 1 1.05 1.79l-.08-.188c.299.693.502 1.423.608 2.169-.01-.07-.018-.139-.029-.21.061.388.088.778.088 1.165 0 .41.368.803.8.785.432-.018.8-.346.8-.785a9.211 9.211 0 0 0-1.563-5.126c-.986-1.452-2.378-2.653-4.01-3.362a10.202 10.202 0 0 0-2.819-.77 9.696 9.696 0 0 0-2.832.087C6 .459 4.334 1.307 3.016 2.505A9.312 9.312 0 0 0 .294 6.993a9.287 9.287 0 0 0 .554 6.188c.47 1.023 1.102 1.98 1.723 2.92A94.609 94.609 0 0 0 5.07 19.67a196.195 196.195 0 0 0 2.362 3.163c.435.57.875 1.138 1.317 1.703l.184.233c.112.142.392.238.566.23.197-.007.44-.07.565-.23a190.624 190.624 0 0 0 2.944-3.852 123.442 123.442 0 0 0 2.405-3.33c.718-1.028 1.422-2.07 2.059-3.15.24-.406.47-.817.667-1.243A9.4 9.4 0 0 0 19 9.32c0-.41-.368-.803-.8-.785-.435.021-.8.348-.8.788z"/><path d="M9.535 5.18c-.762.006-1.545.225-2.166.663a3.893 3.893 0 0 0-1.433 1.835c-.532 1.403-.061 3.12 1.122 4.072a4.013 4.013 0 0 0 2.218.89 3.85 3.85 0 0 0 2.222-.52c.63-.372 1.18-.94 1.483-1.606.346-.758.45-1.561.285-2.38-.29-1.441-1.569-2.667-3.057-2.89a4.498 4.498 0 0 0-.674-.063c-.419-.003-.818.362-.8.782.02.425.352.78.8.782.135 0 .271.01.407.026-.072-.01-.141-.018-.213-.029a3.2 3.2 0 0 1 .76.204l-.193-.079a3.176 3.176 0 0 1 .61.337c.09.06-.077-.06-.077-.06.013 0 .043.034.053.041.078.063.15.126.219.196.066.065.128.13.186.2.016.019.03.037.046.053.058.068-.112-.151-.062-.078.027.039.054.073.08.112.107.156.197.326.274.498l-.08-.188c.102.24.171.487.208.743-.01-.07-.018-.138-.029-.209.035.266.035.532 0 .795l.03-.208a3.028 3.028 0 0 1-.208.743l.08-.188a3.064 3.064 0 0 1-.344.597c-.061.089.061-.075.061-.075 0 .013-.034.041-.042.052a2.555 2.555 0 0 1-.2.213 2.679 2.679 0 0 1-.205.183c-.019.016-.038.029-.054.044-.069.058.155-.11.08-.06-.04.026-.074.052-.114.079-.16.104-.333.192-.509.268l.192-.078a3.2 3.2 0 0 1-.76.203c.073-.01.142-.018.214-.029a3.258 3.258 0 0 1-.813 0l.214.03a3.2 3.2 0 0 1-.76-.204l.192.078a3.176 3.176 0 0 1-.495-.258l-.115-.078c-.09-.06.077.06.077.06-.013 0-.042-.034-.053-.042a2.57 2.57 0 0 1-.218-.196 2.662 2.662 0 0 1-.187-.2c-.016-.019-.029-.037-.045-.052-.059-.068.112.15.061.078-.026-.04-.053-.073-.08-.112a3.25 3.25 0 0 1-.274-.498l.08.187a3.028 3.028 0 0 1-.208-.742l.03.208a3.056 3.056 0 0 1 0-.795l-.03.209c.038-.256.107-.504.208-.743l-.08.187a3.064 3.064 0 0 1 .344-.597c.06-.088-.062.076-.062.076 0-.013.035-.042.043-.052.064-.076.128-.146.2-.214.066-.065.133-.125.205-.183.019-.015.037-.028.053-.044.07-.057-.154.11-.08.06l.115-.078c.16-.104.333-.193.509-.269l-.192.079a3.2 3.2 0 0 1 .759-.204l-.213.029c.136-.018.269-.026.407-.026.418-.003.818-.357.8-.782-.022-.423-.355-.785-.802-.782z"/></g></svg><svg viewBox="0 0 31 31" id="icon-zoom" xmlns="http://www.w3.org/2000/svg"><g fill="none" fill-rule="evenodd"><g transform="translate(0 2)"><path fill="#3D3935" d="M7.828 20.757l1.415 1.415-6.364 6.364a1 1 0 0 1-1.414-1.414l6.363-6.365z"/><circle cx="18" cy="12" r="12" stroke="#3D3935" stroke-width="2"/></g><path d="M18 10v8m-4-4h8" stroke="#3D3935" stroke-linecap="round" stroke-linejoin="round" stroke-width="2"/></g></svg><svg viewBox="0 0 14 12" id="instagram" xmlns="http://www.w3.org/2000/svg"><path fill="#FFF" d="M4.263 10.16L.927 12l.54-3.458C.55 7.642 0 6.503 0 5.264 0 2.357 3.022 0 6.75 0s6.75 2.357 6.75 5.264c0 2.908-3.022 5.265-6.75 5.265a8.391 8.391 0 0 1-2.487-.37z"/></svg><svg viewBox="0 0 26 13" id="pininterest" xmlns="http://www.w3.org/2000/svg"><g fill="none" transform="translate(3 1)"><rect width="18" height="12" x="1" fill="#FFF" rx="2"/><path stroke="#3D3935" stroke-width="2" d="M10 8l10-8H0z"/></g></svg><svg viewBox="0 0 31 31" id="plus" xmlns="http://www.w3.org/2000/svg"><g fill="none" fill-rule="evenodd"><g transform="translate(0 2)"><path fill="#3D3935" d="M7.828 20.757l1.415 1.415-6.364 6.364a1 1 0 0 1-1.414-1.414l6.363-6.365z"/><circle cx="18" cy="12" r="12" stroke="#3D3935" stroke-width="2"/></g><path d="M18 10v8m-4-4h8" stroke="#3D3935" stroke-linecap="round" stroke-linejoin="round" stroke-width="2"/></g></svg><svg viewBox="0 0 25 25" id="question-mark-icon" xmlns="http://www.w3.org/2000/svg"><g fill="none" fill-rule="evenodd"><circle fill="#3D3935" fill-rule="nonzero" cx="12.5" cy="12.5" r="12.5"/><text font-family="SofiaPro-Bold, Sofia Pro" font-size="16" font-weight="bold" fill="#FEFEFE"><tspan x="8.654" y="17.442">?</tspan></text></g></svg><svg viewBox="0 0 95 107" id="seal" xmlns="http://www.w3.org/2000/svg"><path d="M0 20.797l6.298 5.214 3.336-4.032-1.123-.93-2.288 2.758-1.406-1.163 1.945-2.352-1.14-.942-1.945 2.347-1.5-1.24 2.215-2.677-1.123-.933zM14.898 7.294l2.596 8.142-1.224.841-6.678-5.328 1.406-.967 4.372 3.688-1.891-5.395zm15.112.862l.466 1.386-4.97 1.665-2.608-7.764 4.87-1.632.464 1.386-3.3 1.109.618 1.844 2.897-.97.473 1.409-2.898.975.584 1.732zm8.874-4.183l1.314-.053c.927-.033 1.293-.603 1.27-1.26-.027-.645-.463-1.224-1.234-1.193l-1.445.056.095 2.45zm.607 1.305l-.554.022.11 2.923-1.646.064L37.085.13l3.258-.126c1.872-.073 2.727 1.22 2.78 2.56.048 1.162-.517 2.226-1.88 2.567l2.238 2.923-1.931.075-2.06-2.85zM58.877 2.68l-4.225 3.534-.933 3.574-1.6-.416.946-3.602-1.93-5.127 1.902.503L54.2 4.672l2.777-2.49zM72.76 18.825c1.003.928 2.339.517 3.289-.517.953-1.03 1.28-2.417.274-3.342l-1.14-1.056-3.563 3.864 1.14 1.051zm2.2-7.105l2.357 2.168c1.724 1.598 1.523 3.83-.055 5.54-1.57 1.7-3.764 2.063-5.49.476l-2.356-2.18 5.543-6.004zm8.251 15.537l.651 1.14c.458.804 1.14.866 1.707.544.567-.326.878-.977.495-1.645l-.718-1.26-2.135 1.22zm-.872 1.14l-.28-.484-2.547 1.453-.813-1.43 7.094-4.055 1.618 2.834c.93 1.629.173 2.986-.987 3.649-1.011.575-2.215.57-3.149-.486l-1.559 3.344-.961-1.685 1.584-3.14zm7.093 16.437c1.445-.282 2.39-1.536 2.113-2.967-.285-1.439-1.638-2.227-3.08-1.94-1.439.283-2.391 1.52-2.112 2.963.285 1.428 1.637 2.23 3.08 1.944m-1.286-6.524c2.283-.45 4.473.984 4.92 3.258.447 2.272-1.034 4.446-3.314 4.895a4.167 4.167 0 0 1-4.909-3.277c-.45-2.277 1.037-4.432 3.303-4.876m2.83 20.664c.59.059 1.232-.176 1.31-.941l.165-1.618-2.397-.246-.162 1.593c-.079.796.5 1.15 1.084 1.212m-.173 1.649c-1.33-.137-2.552-1.084-2.359-2.923l.168-1.68-2.842-.29.168-1.637 8.13.83-.34 3.316c-.182 1.842-1.59 2.524-2.925 2.384M17.712 93.655c1-2.073 3.473-2.964 5.557-1.956a4.068 4.068 0 0 1 2.269 2.979l-1.534.276c-.134-.787-.576-1.452-1.358-1.83-1.336-.645-2.816-.067-3.45 1.25-.635 1.315-.188 2.846 1.145 3.492.796.383 1.59.318 2.294-.078l.732 1.38c-1.104.6-2.49.682-3.741.078-2.088-1.006-2.926-3.495-1.914-5.59m20.426 6.286c.187-1.461-.698-2.763-2.149-2.953-1.458-.188-2.634.846-2.825 2.31-.192 1.462.685 2.76 2.146 2.948 1.45.19 2.64-.844 2.828-2.305m-6.614-.855c.3-2.31 2.359-3.94 4.667-3.64 2.296.295 3.897 2.397 3.596 4.707a4.179 4.179 0 0 1-4.675 3.627c-2.31-.299-3.884-2.394-3.588-4.694m16.49 1.788l-.992-5.166 1.621-.31.978 5.071c.21 1.087.995 1.394 1.74 1.252.758-.145 1.37-.727 1.163-1.814l-.975-5.07 1.62-.311.992 5.166c.36 1.853-.857 3.25-2.503 3.568-1.632.313-3.286-.53-3.644-2.386m17.341-11.703l3.892 7.203-1.308.704-5.052-3.098 2.44 4.512-1.453.785-3.898-7.2 1.352-.73 4.982 3.074-2.411-4.465zm10.622-7.288l-1.595 1.6 4.775 4.75-1.168 1.172-4.77-4.748-1.598 1.601-1.033-1.03 4.35-4.379zm7.676-3.124l.805-1.445c.528.28 1.232.017 1.6-.646.361-.645.263-1.254-.245-1.54-.391-.22-.833-.086-1.364.423l-.737.735c-1.286 1.335-2.395 1.087-3.035.729-1.274-.715-1.514-2.288-.746-3.66.75-1.35 2.152-1.931 3.51-1.171l-.808 1.444c-.508-.285-1.098-.153-1.447.47-.31.561-.204 1.179.274 1.447.173.098.578.252 1.201-.38l.676-.668c.906-.913 2.004-1.54 3.214-.863 1.425.796 1.492 2.428.737 3.778-.846 1.525-2.37 2.053-3.635 1.346M42.388 63.36c-3.898.03-7.094-3.116-7.122-7.014a.54.54 0 0 1 .53-.55.55.55 0 0 1 .557.536 5.976 5.976 0 0 0 6.018 5.932c.302 0 .545.246.545.547a.537.537 0 0 1-.528.548m-.618-28.6c-.408.637-10.153 15.728-10.12 21.453.053 5.926 4.904 10.704 10.83 10.657 5.92-.045 10.702-4.899 10.66-10.825-.05-5.722-10.026-20.665-10.462-21.291-.203-.31-.7-.31-.908.006" fill="#2D4147" fill-rule="evenodd"/></svg><svg viewBox="0 0 23 24" id="search" xmlns="http://www.w3.org/2000/svg"><g fill="none" fill-rule="evenodd" transform="matrix(-1 0 0 1 23 2)"><path fill="#3D3935" d="M4.414 16.172l1.414 1.414-3.535 3.535a1 1 0 0 1-1.414-1.414l3.535-3.535z"/><circle cx="12" cy="9" r="9" stroke="#3D3935" stroke-width="2"/></g></svg><svg viewBox="0 0 19 25" id="selected-pin-icon" xmlns="http://www.w3.org/2000/svg"><g fill-rule="nonzero" fill="none"><path d="M19 9.324a9.211 9.211 0 0 0-1.563-5.126c-.986-1.452-2.378-2.653-4.01-3.362a10.202 10.202 0 0 0-2.819-.77 9.696 9.696 0 0 0-2.832.087C6 .459 4.334 1.307 3.016 2.505A9.312 9.312 0 0 0 .294 6.993a9.287 9.287 0 0 0 .554 6.188c.47 1.023 1.102 1.98 1.723 2.92A94.609 94.609 0 0 0 5.07 19.67a196.195 196.195 0 0 0 2.362 3.163c.435.57.875 1.138 1.317 1.703l.184.233c.112.142.392.238.566.23.197-.007.44-.07.565-.23a190.624 190.624 0 0 0 2.944-3.852 123.442 123.442 0 0 0 2.405-3.33c.718-1.028 1.422-2.07 2.059-3.15.24-.406.47-.817.667-1.243A9.4 9.4 0 0 0 19 9.32c0-.41-.368-.803-.8-.785-.435.021.8 1.227.8.788z" fill="#A45353"/><path d="M9.535 5.18c-.762.006-1.545.225-2.166.663a3.893 3.893 0 0 0-1.433 1.835c-.532 1.403-.061 3.12 1.122 4.072a4.013 4.013 0 0 0 2.218.89 3.85 3.85 0 0 0 2.222-.52c.63-.372 1.18-.94 1.483-1.606.346-.758.45-1.561.285-2.38-.29-1.441-1.569-2.667-3.057-2.89a4.498 4.498 0 0 0-.674-.063c-.419-.003-.818.362-.8.782.02.425.352.78.8.782.135 0 .271.01.407.026-.072-.01-.141-.018-.213-.029a3.2 3.2 0 0 1 .76.204l-.193-.079a3.176 3.176 0 0 1 .61.337c.09.06-.077-.06-.077-.06.013 0 .043.034.053.041.078.063.15.126.219.196.066.065.128.13.186.2.016.019.03.037.046.053.058.068-.112-.151-.062-.078.027.039.054.073.08.112.107.156.197.326.274.498l-.08-.188c.102.24.171.487.208.743-.01-.07-.018-.138-.029-.209.035.266.035.532 0 .795l.03-.208a3.028 3.028 0 0 1-.208.743l.08-.188a3.064 3.064 0 0 1-.344.597c-.061.089.061-.075.061-.075 0 .013-.034.041-.042.052a2.555 2.555 0 0 1-.2.213 2.679 2.679 0 0 1-.205.183c-.019.016-.038.029-.054.044-.069.058.155-.11.08-.06-.04.026-.074.052-.114.079-.16.104-.333.192-.509.268l.192-.078a3.2 3.2 0 0 1-.76.203c.073-.01.142-.018.214-.029a3.258 3.258 0 0 1-.813 0l.214.03a3.2 3.2 0 0 1-.76-.204l.192.078a3.176 3.176 0 0 1-.495-.258l-.115-.078c-.09-.06.077.06.077.06-.013 0-.042-.034-.053-.042a2.57 2.57 0 0 1-.218-.196 2.662 2.662 0 0 1-.187-.2c-.016-.019-.029-.037-.045-.052-.059-.068.112.15.061.078-.026-.04-.053-.073-.08-.112a3.25 3.25 0 0 1-.274-.498l.08.187a3.028 3.028 0 0 1-.208-.742l.03.208a3.056 3.056 0 0 1 0-.795l-.03.209c.038-.256.107-.504.208-.743l-.08.187a3.064 3.064 0 0 1 .344-.597c.06-.088-.062.076-.062.076 0-.013.035-.042.043-.052.064-.076.128-.146.2-.214.066-.065.133-.125.205-.183.019-.015.037-.028.053-.044.07-.057-.154.11-.08.06l.115-.078c.16-.104.333-.193.509-.269l-.192.079a3.2 3.2 0 0 1 .759-.204l-.213.029c.136-.018.269-.026.407-.026.418-.003.818-.357.8-.782-.022-.423-.355-.785-.802-.782z" fill="#FFF"/></g></svg><svg viewBox="0 0 14 12" id="sms" xmlns="http://www.w3.org/2000/svg"><path fill="#FFF" d="M4.263 10.16L.927 12l.54-3.458C.55 7.642 0 6.503 0 5.264 0 2.357 3.022 0 6.75 0s6.75 2.357 6.75 5.264c0 2.908-3.022 5.265-6.75 5.265a8.391 8.391 0 0 1-2.487-.37z"/></svg><svg viewBox="0 0 15 12" id="twitter" xmlns="http://www.w3.org/2000/svg"><path fill="#FFF" fill-rule="evenodd" d="M13.266 2.989c.006.13.01.26.01.391 0 4.003-3.05 8.62-8.628 8.62A8.584 8.584 0 0 1 0 10.639c.238.027.48.041.723.041a6.08 6.08 0 0 0 3.765-1.296 3.037 3.037 0 0 1-2.831-2.103 3.057 3.057 0 0 0 1.368-.052 3.034 3.034 0 0 1-2.432-2.97V4.22c.41.227.877.362 1.374.379A3.028 3.028 0 0 1 1.03.553 8.607 8.607 0 0 0 7.28 3.72 3.03 3.03 0 0 1 10.233 0c.87.001 1.66.369 2.212.956A6.05 6.05 0 0 0 14.371.22a3.04 3.04 0 0 1-1.333 1.676 6.054 6.054 0 0 0 1.74-.476 6.15 6.15 0 0 1-1.512 1.569"/></svg></svg>